<svg width="159" height="160" viewBox="0 0 159 160" fill="none" xmlns="http://www.w3.org/2000/svg">
<g filter="url(#filter0_d_206_65)">
<rect x="15" y="11" width="129" height="130" rx="20" fill="#A8D5B1"/>
</g>
<path d="M37.4148 108H36.3068L39.5114 99.2727H40.6023L43.8068 108H42.6989L40.0909 100.653H40.0227L37.4148 108ZM37.8239 104.591H42.2898V105.528H37.8239V104.591ZM48.8253 108H45.1321L55.8139 78.9091H59.4503L70.1321 108H66.4389L57.7457 83.5114H57.5185L48.8253 108ZM50.1889 96.6364H65.0753V99.7614H50.1889V96.6364ZM82.4588 108H73.5952L99.2315 38.1818H107.959L133.595 108H124.732L103.868 49.2273H103.322L82.4588 108ZM85.7315 80.7273H121.459V88.2273H85.7315V80.7273Z" fill="#464850"/>
<defs>
<filter id="filter0_d_206_65" x="0" y="0" width="159" height="160" filterUnits="userSpaceOnUse" color-interpolation-filters="sRGB">
<feFlood flood-opacity="0" result="BackgroundImageFix"/>
<feColorMatrix in="SourceAlpha" type="matrix" values="0 0 0 0 0 0 0 0 0 0 0 0 0 0 0 0 0 0 127 0" result="hardAlpha"/>
<feOffset dy="4"/>
<feGaussianBlur stdDeviation="7.5"/>
<feComposite in2="hardAlpha" operator="out"/>
<feColorMatrix type="matrix" values="0 0 0 0 0 0 0 0 0 0 0 0 0 0 0 0 0 0 1 0"/>
<feBlend mode="normal" in2="BackgroundImageFix" result="effect1_dropShadow_206_65"/>
<feBlend mode="normal" in="SourceGraphic" in2="effect1_dropShadow_206_65" result="shape"/>
</filter>
</defs>
</svg>
