<svg width="159" height="160" viewBox="0 0 159 160" fill="none" xmlns="http://www.w3.org/2000/svg">
<g filter="url(#filter0_d_197_65)">
<rect x="15" y="11" width="129" height="130" rx="20" fill="#A8D5B1"/>
</g>
<path d="M112 70.5C114.485 70.5 116.5 72.5147 116.5 75C116.5 77.4853 114.485 79.5 112 79.5V70.5ZM43.818 78.182C42.0607 76.4246 42.0607 73.5754 43.818 71.818L72.4558 43.1802C74.2132 41.4228 77.0624 41.4228 78.8198 43.1802C80.5772 44.9376 80.5772 47.7868 78.8198 49.5442L53.364 75L78.8198 100.456C80.5772 102.213 80.5772 105.062 78.8198 106.82C77.0624 108.577 74.2132 108.577 72.4558 106.82L43.818 78.182ZM112 79.5L47 79.5V70.5L112 70.5V79.5Z" fill="#464850"/>
<defs>
<filter id="filter0_d_197_65" x="0" y="0" width="159" height="160" filterUnits="userSpaceOnUse" color-interpolation-filters="sRGB">
<feFlood flood-opacity="0" result="BackgroundImageFix"/>
<feColorMatrix in="SourceAlpha" type="matrix" values="0 0 0 0 0 0 0 0 0 0 0 0 0 0 0 0 0 0 127 0" result="hardAlpha"/>
<feOffset dy="4"/>
<feGaussianBlur stdDeviation="7.5"/>
<feComposite in2="hardAlpha" operator="out"/>
<feColorMatrix type="matrix" values="0 0 0 0 0 0 0 0 0 0 0 0 0 0 0 0 0 0 1 0"/>
<feBlend mode="normal" in2="BackgroundImageFix" result="effect1_dropShadow_197_65"/>
<feBlend mode="normal" in="SourceGraphic" in2="effect1_dropShadow_197_65" result="shape"/>
</filter>
</defs>
</svg>
