<svg width="98" height="98" viewBox="0 0 98 98" fill="none" xmlns="http://www.w3.org/2000/svg">
<path d="M44.9167 81.6666C43.7597 81.6666 42.7899 81.2753 42.0073 80.4926C41.2247 79.71 40.8333 78.7402 40.8333 77.5833V53.0833L17.15 22.8666C16.1292 21.5055 15.976 20.0763 16.6906 18.5791C17.4052 17.0819 18.6472 16.3333 20.4167 16.3333H77.5833C79.3528 16.3333 80.5948 17.0819 81.3094 18.5791C82.024 20.0763 81.8708 21.5055 80.85 22.8666L57.1667 53.0833V77.5833C57.1667 78.7402 56.7753 79.71 55.9927 80.4926C55.2101 81.2753 54.2403 81.6666 53.0833 81.6666H44.9167ZM49 50.2249L69.2125 24.4999H28.7875L49 50.2249Z" fill="#464850"/>
</svg>
