<?xml version="1.0" encoding="UTF-8" standalone="no"?>
<svg width="591" height="1080" viewBox="0 0 591 1080" fill="none" xmlns="http://www.w3.org/2000/svg" >
<g filter="url(#filter0_d_45_64)">
<path d="M15 1080.74C18.5 801.684 361.141 964.142 291 673.637C232 429.276 259.5 274.701 173 209.912C86.5 145.123 38.5 145.633 79 74.7212C116.66 8.78164 74 -17.6158 91.5 -9.96358L629 -9.9629V1080.74H15Z" fill="#A8D5B1"/>
<path d="M291 1080.73C294.5 801.683 644.463 965.809 448.5 702.204C332.832 546.61 535 196.137 448.5 131.348C362 66.5593 232 100.739 232 5.34151C232 -70.9767 214.5 -17.6152 232 -9.96295L629 -9.9629V1080.74L291 1080.73Z" fill="#464850"/>
</g>
<g filter="url(#filter1_d_45_64)">
<path d="M229 1081C232.5 801.949 523.181 1002.49 386.5 702.469C256 416.012 381 229.808 294.5 165.019C208 100.23 170 101.004 170 5.60616C170 -70.7121 152.5 -17.3505 170 -9.6983L626 -9.69826V1081H229Z" fill="#89AC84"/>
</g>
<g filter="url(#filter2_d_45_64)">
<path d="M298.5 1078.96C302 799.907 651.963 964.033 456 700.428C340.332 544.834 542.5 194.361 456 129.572C369.5 64.7834 239.5 98.9634 239.5 3.56564C239.5 -72.7526 222 -19.3911 239.5 -11.7388L636.5 -11.7388V1078.96L298.5 1078.96Z" fill="#464850"/>
</g>
<defs>
<filter id="filter0_d_45_64" x="0" y="-46.2241" width="644" height="1145.96" filterUnits="userSpaceOnUse" color-interpolation-filters="sRGB">
<feFlood flood-opacity="0" result="BackgroundImageFix"/>
<feColorMatrix in="SourceAlpha" type="matrix" values="0 0 0 0 0 0 0 0 0 0 0 0 0 0 0 0 0 0 127 0" result="hardAlpha"/>
<feOffset dy="4"/>
<feGaussianBlur stdDeviation="7.5"/>
<feComposite in2="hardAlpha" operator="out"/>
<feColorMatrix type="matrix" values="0 0 0 0 0 0 0 0 0 0 0 0 0 0 0 0 0 0 0.5 0"/>
<feBlend mode="normal" in2="BackgroundImageFix" result="effect1_dropShadow_45_64"/>
<feBlend mode="normal" in="SourceGraphic" in2="effect1_dropShadow_45_64" result="shape"/>
</filter>
<filter id="filter1_d_45_64" x="143.222" y="-45.9595" width="493.778" height="1145.96" filterUnits="userSpaceOnUse" color-interpolation-filters="sRGB">
<feFlood flood-opacity="0" result="BackgroundImageFix"/>
<feColorMatrix in="SourceAlpha" type="matrix" values="0 0 0 0 0 0 0 0 0 0 0 0 0 0 0 0 0 0 127 0" result="hardAlpha"/>
<feOffset dx="-4" dy="4"/>
<feGaussianBlur stdDeviation="7.5"/>
<feComposite in2="hardAlpha" operator="out"/>
<feColorMatrix type="matrix" values="0 0 0 0 0 0 0 0 0 0 0 0 0 0 0 0 0 0 0.5 0"/>
<feBlend mode="normal" in2="BackgroundImageFix" result="effect1_dropShadow_45_64"/>
<feBlend mode="normal" in="SourceGraphic" in2="effect1_dropShadow_45_64" result="shape"/>
</filter>
<filter id="filter2_d_45_64" x="212.722" y="-48" width="434.778" height="1145.96" filterUnits="userSpaceOnUse" color-interpolation-filters="sRGB">
<feFlood flood-opacity="0" result="BackgroundImageFix"/>
<feColorMatrix in="SourceAlpha" type="matrix" values="0 0 0 0 0 0 0 0 0 0 0 0 0 0 0 0 0 0 127 0" result="hardAlpha"/>
<feOffset dx="-4" dy="4"/>
<feGaussianBlur stdDeviation="7.5"/>
<feComposite in2="hardAlpha" operator="out"/>
<feColorMatrix type="matrix" values="0 0 0 0 0 0 0 0 0 0 0 0 0 0 0 0 0 0 0.5 0"/>
<feBlend mode="normal" in2="BackgroundImageFix" result="effect1_dropShadow_45_64"/>
<feBlend mode="normal" in="SourceGraphic" in2="effect1_dropShadow_45_64" result="shape"/>
</filter>
</defs>
</svg>
