<svg width="61" height="61" viewBox="0 0 61 61" fill="none" xmlns="http://www.w3.org/2000/svg">
<path d="M45.75 35.5834V27.9584H38.125V22.8751H45.75V15.2501H50.8334V22.8751H58.4584V27.9584H50.8334V35.5834H45.75ZM22.875 30.5001C20.0792 30.5001 17.6858 29.5046 15.6948 27.5136C13.7038 25.5227 12.7084 23.1292 12.7084 20.3334C12.7084 17.5376 13.7038 15.1442 15.6948 13.1532C17.6858 11.1622 20.0792 10.1667 22.875 10.1667C25.6709 10.1667 28.0643 11.1622 30.0552 13.1532C32.0462 15.1442 33.0417 17.5376 33.0417 20.3334C33.0417 23.1292 32.0462 25.5227 30.0552 27.5136C28.0643 29.5046 25.6709 30.5001 22.875 30.5001ZM2.54169 50.8334V43.7167C2.54169 42.2765 2.91235 40.9527 3.65367 39.7454C4.39499 38.5381 5.37988 37.6167 6.60835 36.9813C9.23474 35.6681 11.9035 34.6832 14.6146 34.0266C17.3257 33.37 20.0792 33.0417 22.875 33.0417C25.6709 33.0417 28.4243 33.37 31.1354 34.0266C33.8465 34.6832 36.5153 35.6681 39.1417 36.9813C40.3702 37.6167 41.3551 38.5381 42.0964 39.7454C42.8377 40.9527 43.2084 42.2765 43.2084 43.7167V50.8334H2.54169ZM7.62502 45.7501H38.125V43.7167C38.125 43.2508 38.0085 42.8272 37.7755 42.4459C37.5426 42.0647 37.2354 41.7681 36.8542 41.5563C34.5667 40.4126 32.258 39.5548 29.9281 38.9829C27.5983 38.411 25.2472 38.1251 22.875 38.1251C20.5028 38.1251 18.1518 38.411 15.8219 38.9829C13.492 39.5548 11.1834 40.4126 8.89585 41.5563C8.5146 41.7681 8.20749 42.0647 7.9745 42.4459C7.74151 42.8272 7.62502 43.2508 7.62502 43.7167V45.7501ZM22.875 25.4167C24.2729 25.4167 25.4696 24.919 26.4651 23.9235C27.4606 22.928 27.9584 21.7313 27.9584 20.3334C27.9584 18.9355 27.4606 17.7388 26.4651 16.7433C25.4696 15.7478 24.2729 15.2501 22.875 15.2501C21.4771 15.2501 20.2804 15.7478 19.2849 16.7433C18.2894 17.7388 17.7917 18.9355 17.7917 20.3334C17.7917 21.7313 18.2894 22.928 19.2849 23.9235C20.2804 24.919 21.4771 25.4167 22.875 25.4167Z" fill="#E3E3E3"/>
</svg>
