<svg width="57" height="57" viewBox="0 0 57 57" fill="none" xmlns="http://www.w3.org/2000/svg">
<path d="M28.5 52.25C25.2146 52.25 22.1271 51.6266 19.2375 50.3797C16.3479 49.1328 13.8344 47.4406 11.6969 45.3031C9.55937 43.1656 7.86719 40.6521 6.62031 37.7625C5.37344 34.8729 4.75 31.7854 4.75 28.5C4.75 25.2146 5.37344 22.1271 6.62031 19.2375C7.86719 16.3479 9.55937 13.8344 11.6969 11.6969C13.8344 9.55937 16.3479 7.86719 19.2375 6.62031C22.1271 5.37344 25.2146 4.75 28.5 4.75C31.7854 4.75 34.8729 5.37344 37.7625 6.62031C40.6521 7.86719 43.1656 9.55937 45.3031 11.6969C47.4406 13.8344 49.1328 16.3479 50.3797 19.2375C51.6266 22.1271 52.25 25.2146 52.25 28.5C52.25 31.7854 51.6266 34.8729 50.3797 37.7625C49.1328 40.6521 47.4406 43.1656 45.3031 45.3031C43.1656 47.4406 40.6521 49.1328 37.7625 50.3797C34.8729 51.6266 31.7854 52.25 28.5 52.25ZM28.5 47.5C30.6375 47.5 32.6958 47.1536 34.675 46.4609C36.6542 45.7682 38.475 44.7687 40.1375 43.4625L13.5375 16.8625C12.2312 18.525 11.2318 20.3458 10.5391 22.325C9.84635 24.3042 9.5 26.3625 9.5 28.5C9.5 33.8042 11.3406 38.2969 15.0219 41.9781C18.7031 45.6594 23.1958 47.5 28.5 47.5ZM43.4625 40.1375C44.7687 38.475 45.7682 36.6542 46.4609 34.675C47.1536 32.6958 47.5 30.6375 47.5 28.5C47.5 23.1958 45.6594 18.7031 41.9781 15.0219C38.2969 11.3406 33.8042 9.5 28.5 9.5C26.3625 9.5 24.3042 9.84635 22.325 10.5391C20.3458 11.2318 18.525 12.2312 16.8625 13.5375L43.4625 40.1375Z" fill="#E3E3E3"/>
</svg>
