<svg width="129" height="130" viewBox="0 0 129 130" fill="none" xmlns="http://www.w3.org/2000/svg">
<path d="M0 20C0 8.9543 8.95431 0 20 0H109C120.046 0 129 8.95431 129 20V110C129 121.046 120.046 130 109 130H20C8.95431 130 0 121.046 0 110V20Z" fill="#464850"/>
<g clip-path="url(#clip0_206_64)">
<path d="M24.395 86.6964C21.5818 89.5088 20.0008 93.3235 20 97.3014V105H27.6987C31.6767 104.999 35.4914 103.418 38.3037 100.605L88.34 50.5689L74.4312 36.6602L24.395 86.6964Z" fill="#F9F0F8"/>
<path d="M106.794 18.2063C105.881 17.2921 104.796 16.567 103.603 16.0722C102.409 15.5774 101.13 15.3228 99.8375 15.3228C98.5454 15.3228 97.266 15.5774 96.0724 16.0722C94.8788 16.567 93.7944 17.2921 92.8813 18.2063L79.7338 31.3575L93.6425 45.2662L106.794 32.1187C107.708 31.2056 108.433 30.1212 108.928 28.9276C109.423 27.734 109.677 26.4546 109.677 25.1625C109.677 23.8704 109.423 22.591 108.928 21.3974C108.433 20.2038 107.708 19.1194 106.794 18.2063Z" fill="#F9F0F8"/>
</g>
<defs>
<clipPath id="clip0_206_64">
<rect width="90" height="90" fill="white" transform="translate(20 15)"/>
</clipPath>
</defs>
</svg>
