<svg xmlns="http://www.w3.org/2000/svg" xmlns:xlink="http://www.w3.org/1999/xlink" width="500" zoomAndPan="magnify" viewBox="0 0 375 374.999991" height="500" preserveAspectRatio="xMidYMid meet" version="1.0"><defs><g/><clipPath id="139aa76969"><path d="M 67.074219 67.074219 L 307.925781 67.074219 L 307.925781 307.925781 L 67.074219 307.925781 Z M 67.074219 67.074219 " clip-rule="nonzero"/></clipPath><clipPath id="e04fba0904"><path d="M 187.5 67.074219 C 120.992188 67.074219 67.074219 120.992188 67.074219 187.5 C 67.074219 254.007812 120.992188 307.925781 187.5 307.925781 C 254.007812 307.925781 307.925781 254.007812 307.925781 187.5 C 307.925781 120.992188 254.007812 67.074219 187.5 67.074219 Z M 187.5 67.074219 " clip-rule="nonzero"/></clipPath><clipPath id="27f5b8d4e4"><path d="M 79.996094 79.996094 L 295.003906 79.996094 L 295.003906 295.003906 L 79.996094 295.003906 Z M 79.996094 79.996094 " clip-rule="nonzero"/></clipPath><clipPath id="23d625197d"><path d="M 187.5 79.996094 C 128.128906 79.996094 79.996094 128.128906 79.996094 187.5 C 79.996094 246.871094 128.128906 295.003906 187.5 295.003906 C 246.871094 295.003906 295.003906 246.871094 295.003906 187.5 C 295.003906 128.128906 246.871094 79.996094 187.5 79.996094 Z M 187.5 79.996094 " clip-rule="nonzero"/></clipPath><clipPath id="52d0b5fecb"><path d="M 117.695312 202.03125 L 257.4375 202.03125 L 257.4375 302.242188 L 117.695312 302.242188 Z M 117.695312 202.03125 " clip-rule="nonzero"/></clipPath><clipPath id="37e295a189"><path d="M 167.796875 202.03125 L 207.203125 202.03125 C 234.871094 202.03125 257.304688 224.464844 257.304688 252.136719 C 257.304688 279.808594 234.871094 302.242188 207.203125 302.242188 L 167.796875 302.242188 C 140.128906 302.242188 117.695312 279.808594 117.695312 252.136719 C 117.695312 224.464844 140.128906 202.03125 167.796875 202.03125 Z M 167.796875 202.03125 " clip-rule="nonzero"/></clipPath></defs><g clip-path="url(#139aa76969)"><g clip-path="url(#e04fba0904)"><path fill="#8da683" d="M 67.074219 67.074219 L 307.925781 67.074219 L 307.925781 307.925781 L 67.074219 307.925781 Z M 67.074219 67.074219 " fill-opacity="1" fill-rule="nonzero"/></g></g><g clip-path="url(#27f5b8d4e4)"><g clip-path="url(#23d625197d)"><path fill="#545454" d="M 79.996094 79.996094 L 295.003906 79.996094 L 295.003906 295.003906 L 79.996094 295.003906 Z M 79.996094 79.996094 " fill-opacity="1" fill-rule="nonzero"/></g></g><g clip-path="url(#52d0b5fecb)"><g clip-path="url(#37e295a189)"><path fill="#8da683" d="M 117.695312 202.03125 L 257.4375 202.03125 L 257.4375 302.242188 L 117.695312 302.242188 Z M 117.695312 202.03125 " fill-opacity="1" fill-rule="nonzero"/></g></g><g fill="#8da683" fill-opacity="1"><g transform="translate(140.883643, 232.500803)"><g><path d="M 84.09375 -83.75 C 84.09375 -80.875 83.578125 -78.242188 82.546875 -75.859375 C 81.523438 -73.484375 80.207031 -71.296875 78.59375 -69.296875 C 76.988281 -67.304688 75.203125 -65.476562 73.234375 -63.8125 C 71.273438 -62.15625 69.367188 -60.632812 67.515625 -59.25 C 65.660156 -57.863281 63.941406 -56.570312 62.359375 -55.375 C 60.785156 -54.1875 59.609375 -53.066406 58.828125 -52.015625 C 58.492188 -51.566406 58.101562 -50.882812 57.65625 -49.96875 C 57.21875 -49.0625 57 -48.023438 57 -46.859375 C 57 -43.867188 56.070312 -41.40625 54.21875 -39.46875 C 52.363281 -37.53125 49.46875 -36.5625 45.53125 -36.5625 C 43.15625 -36.5625 41.203125 -36.929688 39.671875 -37.671875 C 38.148438 -38.421875 36.929688 -39.347656 36.015625 -40.453125 C 35.109375 -41.566406 34.472656 -42.757812 34.109375 -44.03125 C 33.742188 -45.3125 33.5625 -46.476562 33.5625 -47.53125 C 33.5625 -51.289062 34.195312 -54.445312 35.46875 -57 C 36.75 -59.550781 38.359375 -61.753906 40.296875 -63.609375 C 42.234375 -65.460938 44.3125 -67.082031 46.53125 -68.46875 C 48.75 -69.851562 50.828125 -71.289062 52.765625 -72.78125 C 54.703125 -74.28125 56.304688 -75.957031 57.578125 -77.8125 C 58.859375 -79.664062 59.5 -81.976562 59.5 -84.75 C 59.5 -87.632812 59.007812 -89.90625 58.03125 -91.5625 C 57.0625 -93.226562 55.867188 -94.460938 54.453125 -95.265625 C 53.046875 -96.066406 51.582031 -96.5625 50.0625 -96.75 C 48.539062 -96.945312 47.253906 -97.046875 46.203125 -97.046875 C 43.429688 -97.046875 41.210938 -96.644531 39.546875 -95.84375 C 37.890625 -95.039062 36.628906 -94.03125 35.765625 -92.8125 C 34.910156 -91.59375 34.359375 -90.25 34.109375 -88.78125 C 33.859375 -87.3125 33.734375 -85.914062 33.734375 -84.59375 C 33.734375 -82.425781 33.316406 -80.582031 32.484375 -79.0625 C 31.660156 -77.539062 30.625 -76.304688 29.375 -75.359375 C 28.125 -74.421875 26.765625 -73.726562 25.296875 -73.28125 C 23.828125 -72.84375 22.484375 -72.625 21.265625 -72.625 C 17.503906 -72.625 14.457031 -73.660156 12.125 -75.734375 C 9.800781 -77.816406 8.640625 -80.488281 8.640625 -83.75 C 8.640625 -85.195312 8.804688 -87.054688 9.140625 -89.328125 C 9.472656 -91.597656 10.109375 -94.003906 11.046875 -96.546875 C 11.992188 -99.097656 13.320312 -101.644531 15.03125 -104.1875 C 16.75 -106.738281 18.992188 -109.039062 21.765625 -111.09375 C 24.535156 -113.144531 27.914062 -114.804688 31.90625 -116.078125 C 35.894531 -117.347656 40.660156 -117.984375 46.203125 -117.984375 C 52.460938 -117.984375 57.957031 -117.140625 62.6875 -115.453125 C 67.425781 -113.765625 71.375 -111.410156 74.53125 -108.390625 C 77.6875 -105.367188 80.066406 -101.765625 81.671875 -97.578125 C 83.285156 -93.398438 84.09375 -88.789062 84.09375 -83.75 Z M 59.828125 -13.796875 C 59.828125 -9.085938 58.632812 -5.609375 56.25 -3.359375 C 53.875 -1.117188 50.523438 0 46.203125 0 C 41.765625 0 38.351562 -1.117188 35.96875 -3.359375 C 33.59375 -5.609375 32.40625 -9.085938 32.40625 -13.796875 C 32.40625 -18.554688 33.59375 -22.015625 35.96875 -24.171875 C 38.351562 -26.335938 41.765625 -27.421875 46.203125 -27.421875 C 50.796875 -27.421875 54.210938 -26.335938 56.453125 -24.171875 C 58.703125 -22.015625 59.828125 -18.554688 59.828125 -13.796875 Z M 59.828125 -13.796875 "/></g></g></g></svg>