<svg width="57" height="41" viewBox="0 0 57 41" fill="none" xmlns="http://www.w3.org/2000/svg">
<path d="M43.75 17.9584H36.125V12.8751H43.75H48.8334H56.4584V17.9584H48.8334H43.75ZM20.875 20.5001C18.0792 20.5001 15.6858 19.5046 13.6948 17.5136C11.7038 15.5227 10.7084 13.1292 10.7084 10.3334C10.7084 7.53758 11.7038 5.14418 13.6948 3.15321C15.6858 1.16223 18.0792 0.166748 20.875 0.166748C23.6709 0.166748 26.0643 1.16223 28.0552 3.15321C30.0462 5.14418 31.0417 7.53758 31.0417 10.3334C31.0417 13.1292 30.0462 15.5227 28.0552 17.5136C26.0643 19.5046 23.6709 20.5001 20.875 20.5001ZM0.541687 40.8334V33.7168C0.541687 32.2765 0.912347 30.9527 1.65367 29.7454C2.39499 28.5381 3.37988 27.6168 4.60835 26.9813C7.23474 25.6681 9.90349 24.6832 12.6146 24.0266C15.3257 23.37 18.0792 23.0418 20.875 23.0418C23.6709 23.0418 26.4243 23.37 29.1354 24.0266C31.8466 24.6832 34.5153 25.6681 37.1417 26.9813C38.3702 27.6168 39.3551 28.5381 40.0964 29.7454C40.8377 30.9527 41.2084 32.2765 41.2084 33.7168V40.8334H0.541687ZM5.62502 35.7501H36.125V33.7168C36.125 33.2508 36.0085 32.8272 35.7755 32.4459C35.5426 32.0647 35.2354 31.7681 34.8542 31.5563C32.5667 30.4126 30.258 29.5548 27.9281 28.9829C25.5983 28.411 23.2472 28.1251 20.875 28.1251C18.5028 28.1251 16.1518 28.411 13.8219 28.9829C11.492 29.5548 9.18335 30.4126 6.89585 31.5563C6.5146 31.7681 6.20749 32.0647 5.9745 32.4459C5.74151 32.8272 5.62502 33.2508 5.62502 33.7168V35.7501ZM20.875 15.4167C22.2729 15.4167 23.4696 14.919 24.4651 13.9235C25.4606 12.928 25.9584 11.7313 25.9584 10.3334C25.9584 8.9355 25.4606 7.7388 24.4651 6.74331C23.4696 5.74782 22.2729 5.25008 20.875 5.25008C19.4771 5.25008 18.2804 5.74782 17.2849 6.74331C16.2894 7.7388 15.7917 8.9355 15.7917 10.3334C15.7917 11.7313 16.2894 12.928 17.2849 13.9235C18.2804 14.919 19.4771 15.4167 20.875 15.4167Z" fill="#E3E3E3"/>
</svg>
