<svg xmlns="http://www.w3.org/2000/svg" xmlns:xlink="http://www.w3.org/1999/xlink" width="500" zoomAndPan="magnify" viewBox="0 0 375 374.999991" height="500" preserveAspectRatio="xMidYMid meet" version="1.0"><defs><g/><clipPath id="f61ef81005"><path d="M 96 80 L 264 80 L 264 287 L 96 287 Z M 96 80 " clip-rule="nonzero"/></clipPath><clipPath id="ef7b60b8eb"><path d="M 158.25 80.988281 L 263.640625 120.34375 L 201.449219 286.878906 L 96.058594 247.519531 Z M 158.25 80.988281 " clip-rule="nonzero"/></clipPath><clipPath id="3a157a33d8"><path d="M 96 80 L 264 80 L 264 287 L 96 287 Z M 96 80 " clip-rule="nonzero"/></clipPath><clipPath id="f4ff7675b6"><path d="M 158.25 80.988281 L 263.640625 120.34375 L 201.453125 286.863281 L 96.0625 247.503906 Z M 158.25 80.988281 " clip-rule="nonzero"/></clipPath><clipPath id="a08cc23b8e"><path d="M 158.25 80.988281 L 263.636719 120.34375 L 201.449219 286.871094 L 96.0625 247.515625 Z M 158.25 80.988281 " clip-rule="nonzero"/></clipPath><clipPath id="c6872263da"><path d="M 173.664062 167.066406 L 303.722656 167.066406 L 303.722656 278.480469 L 173.664062 278.480469 Z M 173.664062 167.066406 " clip-rule="nonzero"/></clipPath><clipPath id="f965b1c836"><path d="M 178.816406 185.65625 C 168.285156 203.003906 175.703125 219.886719 185.027344 228.847656 L 234.121094 275.953125 C 237.140625 278.847656 241.910156 278.828125 244.898438 275.90625 L 292.890625 229.035156 C 301.5625 219.394531 304.886719 209.171875 303.039062 197.785156 C 300.492188 182.03125 287.511719 169.8125 271.476562 168.066406 C 261.640625 167.007812 252.140625 169.789062 244.726562 175.953125 C 242.730469 177.609375 240.949219 179.464844 239.394531 181.476562 C 237.550781 179.183594 235.386719 177.085938 232.941406 175.226562 C 224.414062 168.746094 213.558594 166.175781 203.136719 168.175781 C 193.261719 170.082031 184.398438 176.453125 178.816406 185.65625 Z M 178.816406 185.65625 " clip-rule="nonzero"/></clipPath><clipPath id="7e7371e960"><path d="M 78 77 L 247 77 L 247 297 L 78 297 Z M 78 77 " clip-rule="nonzero"/></clipPath><clipPath id="0c0ff508f5"><path d="M 71.46875 259.140625 L 147.894531 57.671875 L 247.078125 95.296875 L 170.652344 296.765625 Z M 71.46875 259.140625 " clip-rule="nonzero"/></clipPath><clipPath id="86ad6a123b"><path d="M 78.875 239.617188 L 140.371094 77.503906 L 246.960938 95.609375 L 170.652344 296.765625 Z M 78.875 239.617188 " clip-rule="nonzero"/></clipPath><clipPath id="7f82b7dc60"><path d="M 171 202 L 188 202 L 188 223 L 171 223 Z M 171 202 " clip-rule="nonzero"/></clipPath><clipPath id="3375d625ad"><path d="M 177.546875 200.277344 L 189.652344 204.96875 L 182.140625 224.355469 L 170.035156 219.667969 Z M 177.546875 200.277344 " clip-rule="nonzero"/></clipPath><clipPath id="585cf3ba88"><path d="M 183.597656 202.625 C 186.941406 203.917969 188.601562 207.679688 187.304688 211.023438 L 184.496094 218.277344 C 183.199219 221.621094 179.441406 223.28125 176.097656 221.984375 C 172.753906 220.6875 171.09375 216.929688 172.390625 213.585938 L 175.199219 206.332031 C 176.496094 202.988281 180.257812 201.328125 183.597656 202.625 Z M 183.597656 202.625 " clip-rule="nonzero"/></clipPath><clipPath id="41e4695a77"><path d="M 155.199219 132.796875 L 173.683594 132.796875 L 173.683594 140.132812 L 155.199219 140.132812 Z M 155.199219 132.796875 " clip-rule="nonzero"/></clipPath><clipPath id="5ad8a5788a"><path d="M 158.867188 132.796875 L 169.996094 132.796875 C 172.023438 132.796875 173.664062 134.441406 173.664062 136.464844 C 173.664062 138.492188 172.023438 140.132812 169.996094 140.132812 L 158.867188 140.132812 C 156.84375 140.132812 155.199219 138.492188 155.199219 136.464844 C 155.199219 134.441406 156.84375 132.796875 158.867188 132.796875 Z M 158.867188 132.796875 " clip-rule="nonzero"/></clipPath><clipPath id="4840785595"><path d="M 153 112 L 169 112 L 169 126 L 153 126 Z M 153 112 " clip-rule="nonzero"/></clipPath><clipPath id="82430bd3d6"><path d="M 152.050781 121.382812 L 165.730469 111.164062 L 169.9375 116.796875 L 156.253906 127.011719 Z M 152.050781 121.382812 " clip-rule="nonzero"/></clipPath><clipPath id="fb8ada7be5"><path d="M 154.863281 119.277344 L 162.914062 113.269531 C 164.46875 112.105469 166.671875 112.425781 167.832031 113.980469 C 168.992188 115.535156 168.675781 117.738281 167.121094 118.898438 L 159.070312 124.910156 C 157.515625 126.070312 155.3125 125.75 154.152344 124.195312 C 152.992188 122.640625 153.308594 120.441406 154.863281 119.277344 Z M 154.863281 119.277344 " clip-rule="nonzero"/></clipPath><clipPath id="ae74c3330d"><path d="M 141 103 L 153 103 L 153 120 L 141 120 Z M 141 103 " clip-rule="nonzero"/></clipPath><clipPath id="d5b5876842"><path d="M 140.667969 117.351562 L 147.171875 102.191406 L 153.628906 104.960938 L 147.125 120.125 Z M 140.667969 117.351562 " clip-rule="nonzero"/></clipPath><clipPath id="2596bf27b7"><path d="M 142.050781 114.125 L 145.78125 105.433594 C 146.546875 103.648438 148.613281 102.824219 150.394531 103.589844 C 152.179688 104.355469 153.003906 106.421875 152.238281 108.203125 L 148.511719 116.894531 C 147.746094 118.679688 145.679688 119.503906 143.894531 118.738281 C 142.113281 117.972656 141.285156 115.90625 142.050781 114.125 Z M 142.050781 114.125 " clip-rule="nonzero"/></clipPath></defs><g clip-path="url(#f61ef81005)"><g clip-path="url(#ef7b60b8eb)"><path fill="#a8d5b1" d="M 158.25 80.988281 L 263.640625 120.34375 L 201.375 287.074219 L 95.984375 247.71875 Z M 158.25 80.988281 " fill-opacity="1" fill-rule="nonzero"/></g></g><g clip-path="url(#3a157a33d8)"><g clip-path="url(#f4ff7675b6)"><g clip-path="url(#a08cc23b8e)"><path stroke-linecap="butt" transform="matrix(0.702606, 0.262384, -0.262384, 0.702606, 158.25064, 80.987083)" fill="none" stroke-linejoin="miter" d="M -0.00023996 0.0017955 L 149.993624 0.00105408 L 149.995093 237.014487 L 0.0012291 237.015229 Z M -0.00023996 0.0017955 " stroke="#8da683" stroke-width="20" stroke-opacity="1" stroke-miterlimit="4"/></g></g></g><g clip-path="url(#c6872263da)"><g clip-path="url(#f965b1c836)"><path fill="#92b699" d="M 173.664062 167.511719 L 303.722656 167.511719 L 303.722656 281.144531 L 173.664062 281.144531 Z M 173.664062 167.511719 " fill-opacity="1" fill-rule="nonzero"/></g></g><g clip-path="url(#7e7371e960)"><g clip-path="url(#0c0ff508f5)"><g clip-path="url(#86ad6a123b)"><path fill="#8da683" d="M 71.46875 259.140625 L 147.746094 58.058594 L 246.933594 95.683594 L 170.652344 296.765625 Z M 71.46875 259.140625 " fill-opacity="1" fill-rule="nonzero"/></g></g></g><g clip-path="url(#7f82b7dc60)"><g clip-path="url(#3375d625ad)"><g clip-path="url(#585cf3ba88)"><path fill="#ffffff" d="M 177.546875 200.277344 L 189.652344 204.96875 L 182.15625 224.308594 L 170.050781 219.617188 Z M 177.546875 200.277344 " fill-opacity="1" fill-rule="nonzero"/></g></g></g><g clip-path="url(#41e4695a77)"><g clip-path="url(#5ad8a5788a)"><path fill="#ffffff" d="M 155.199219 132.796875 L 173.65625 132.796875 L 173.65625 140.132812 L 155.199219 140.132812 Z M 155.199219 132.796875 " fill-opacity="1" fill-rule="nonzero"/></g></g><g fill="#ffffff" fill-opacity="1"><g transform="translate(116.162386, 154.290765)"><g><path d="M 18.34375 -20.34375 C 18.101562 -19.6875 18.0625 -19.03125 18.21875 -18.375 C 18.382812 -17.726562 18.664062 -17.066406 19.0625 -16.390625 C 19.46875 -15.710938 19.957031 -15.015625 20.53125 -14.296875 C 21.101562 -13.578125 21.6875 -12.820312 22.28125 -12.03125 C 22.882812 -11.25 23.445312 -10.429688 23.96875 -9.578125 C 24.5 -8.734375 24.914062 -7.835938 25.21875 -6.890625 C 25.53125 -5.953125 25.695312 -4.960938 25.71875 -3.921875 C 25.738281 -2.890625 25.539062 -1.800781 25.125 -0.65625 L 25.0625 -0.46875 C 24.570312 0.78125 23.992188 1.804688 23.328125 2.609375 C 22.671875 3.410156 21.960938 4.046875 21.203125 4.515625 C 20.441406 4.992188 19.644531 5.316406 18.8125 5.484375 C 17.976562 5.660156 17.144531 5.734375 16.3125 5.703125 C 15.476562 5.679688 14.664062 5.578125 13.875 5.390625 C 13.082031 5.203125 12.34375 4.988281 11.65625 4.75 L 11.4375 4.671875 C 10.144531 4.160156 9.066406 3.585938 8.203125 2.953125 C 7.335938 2.316406 6.640625 1.644531 6.109375 0.9375 C 5.578125 0.238281 5.1875 -0.476562 4.9375 -1.21875 C 4.695312 -1.957031 4.554688 -2.679688 4.515625 -3.390625 C 4.484375 -4.097656 4.519531 -4.769531 4.625 -5.40625 C 4.738281 -6.050781 4.894531 -6.628906 5.09375 -7.140625 C 5.300781 -7.660156 5.566406 -8.085938 5.890625 -8.421875 C 6.222656 -8.753906 6.585938 -8.984375 6.984375 -9.109375 C 7.378906 -9.234375 7.796875 -9.28125 8.234375 -9.25 C 8.671875 -9.226562 9.097656 -9.140625 9.515625 -8.984375 C 9.910156 -8.828125 10.289062 -8.601562 10.65625 -8.3125 C 11.03125 -8.03125 11.335938 -7.703125 11.578125 -7.328125 C 11.816406 -6.953125 11.972656 -6.523438 12.046875 -6.046875 C 12.117188 -5.566406 12.0625 -5.066406 11.875 -4.546875 C 11.46875 -3.398438 11.425781 -2.523438 11.75 -1.921875 C 12.070312 -1.316406 12.691406 -0.835938 13.609375 -0.484375 C 14.054688 -0.316406 14.492188 -0.207031 14.921875 -0.15625 C 15.359375 -0.101562 15.757812 -0.148438 16.125 -0.296875 C 16.488281 -0.441406 16.832031 -0.691406 17.15625 -1.046875 C 17.476562 -1.398438 17.765625 -1.894531 18.015625 -2.53125 C 18.328125 -3.320312 18.425781 -4.101562 18.3125 -4.875 C 18.195312 -5.65625 17.957031 -6.429688 17.59375 -7.203125 C 17.226562 -7.972656 16.769531 -8.742188 16.21875 -9.515625 C 15.664062 -10.296875 15.097656 -11.082031 14.515625 -11.875 C 13.941406 -12.675781 13.390625 -13.488281 12.859375 -14.3125 C 12.335938 -15.144531 11.90625 -15.992188 11.5625 -16.859375 C 11.21875 -17.722656 11.015625 -18.609375 10.953125 -19.515625 C 10.898438 -20.429688 11.0625 -21.382812 11.4375 -22.375 L 11.578125 -22.75 C 12.210938 -24.363281 12.945312 -25.625 13.78125 -26.53125 C 14.625 -27.445312 15.570312 -28.066406 16.625 -28.390625 C 17.6875 -28.710938 18.859375 -28.773438 20.140625 -28.578125 C 21.429688 -28.378906 22.84375 -27.984375 24.375 -27.390625 L 24.96875 -27.171875 C 26.363281 -26.628906 27.488281 -26.019531 28.34375 -25.34375 C 29.195312 -24.664062 29.851562 -23.960938 30.3125 -23.234375 C 30.78125 -22.515625 31.082031 -21.785156 31.21875 -21.046875 C 31.363281 -20.316406 31.410156 -19.628906 31.359375 -18.984375 C 31.316406 -18.335938 31.222656 -17.753906 31.078125 -17.234375 C 30.929688 -16.710938 30.800781 -16.300781 30.6875 -16 C 30.507812 -15.539062 30.257812 -15.15625 29.9375 -14.84375 C 29.613281 -14.539062 29.253906 -14.316406 28.859375 -14.171875 C 28.472656 -14.035156 28.050781 -13.972656 27.59375 -13.984375 C 27.132812 -13.992188 26.664062 -14.09375 26.1875 -14.28125 C 25.832031 -14.414062 25.5 -14.628906 25.1875 -14.921875 C 24.882812 -15.210938 24.628906 -15.523438 24.421875 -15.859375 C 24.222656 -16.203125 24.09375 -16.554688 24.03125 -16.921875 C 23.96875 -17.285156 23.992188 -17.617188 24.109375 -17.921875 C 24.585938 -19.171875 24.695312 -20.125 24.4375 -20.78125 C 24.1875 -21.4375 23.628906 -21.929688 22.765625 -22.265625 C 22.347656 -22.429688 21.9375 -22.5625 21.53125 -22.65625 C 21.125 -22.757812 20.734375 -22.769531 20.359375 -22.6875 C 19.984375 -22.601562 19.625 -22.378906 19.28125 -22.015625 C 18.945312 -21.660156 18.632812 -21.101562 18.34375 -20.34375 Z M 18.34375 -20.34375 "/></g></g></g><g fill="#ffffff" fill-opacity="1"><g transform="translate(101.486172, 192.038062)"><g><path d="M 24.5 -1.3125 L 25.046875 -1.109375 L 32.390625 -20 C 32.585938 -20.476562 32.796875 -20.921875 33.015625 -21.328125 C 33.242188 -21.734375 33.519531 -22.054688 33.84375 -22.296875 C 34.164062 -22.535156 34.566406 -22.671875 35.046875 -22.703125 C 35.535156 -22.742188 36.128906 -22.628906 36.828125 -22.359375 C 37.597656 -22.054688 38.164062 -21.722656 38.53125 -21.359375 C 38.90625 -20.992188 39.144531 -20.609375 39.25 -20.203125 C 39.363281 -19.796875 39.363281 -19.363281 39.25 -18.90625 C 39.144531 -18.445312 38.992188 -17.976562 38.796875 -17.5 L 29.828125 5.578125 C 29.566406 6.242188 29.300781 6.878906 29.03125 7.484375 C 28.757812 8.085938 28.421875 8.597656 28.015625 9.015625 C 27.617188 9.429688 27.128906 9.695312 26.546875 9.8125 C 25.972656 9.925781 25.269531 9.820312 24.4375 9.5 L 21.4375 8.328125 C 20.71875 8.054688 20.175781 7.6875 19.8125 7.21875 C 19.445312 6.75 19.179688 6.25 19.015625 5.71875 C 18.847656 5.195312 18.753906 4.679688 18.734375 4.171875 C 18.722656 3.660156 18.722656 3.226562 18.734375 2.875 L 19.109375 -18.40625 L 18.546875 -18.609375 L 11.203125 0.28125 C 11.015625 0.757812 10.804688 1.203125 10.578125 1.609375 C 10.359375 2.015625 10.082031 2.335938 9.75 2.578125 C 9.414062 2.828125 9.007812 2.96875 8.53125 3 C 8.0625 3.03125 7.476562 2.910156 6.78125 2.640625 C 5.988281 2.328125 5.398438 1.988281 5.015625 1.625 C 4.640625 1.257812 4.398438 0.867188 4.296875 0.453125 C 4.191406 0.046875 4.191406 -0.378906 4.296875 -0.828125 C 4.398438 -1.285156 4.546875 -1.753906 4.734375 -2.234375 L 13.703125 -25.3125 C 13.960938 -25.957031 14.234375 -26.585938 14.515625 -27.203125 C 14.804688 -27.816406 15.15625 -28.328125 15.5625 -28.734375 C 15.96875 -29.148438 16.457031 -29.414062 17.03125 -29.53125 C 17.601562 -29.65625 18.316406 -29.550781 19.171875 -29.21875 L 22.171875 -28.046875 C 22.929688 -27.753906 23.488281 -27.367188 23.84375 -26.890625 C 24.207031 -26.410156 24.476562 -25.9375 24.65625 -25.46875 C 24.820312 -24.925781 24.90625 -24.351562 24.90625 -23.75 Z M 24.5 -1.3125 "/></g></g></g><g fill="#ffffff" fill-opacity="1"><g transform="translate(86.809958, 229.78536)"><g><path d="M 25.5 -26.765625 C 26.875 -26.222656 28.085938 -25.546875 29.140625 -24.734375 C 30.203125 -23.921875 31.039062 -22.992188 31.65625 -21.953125 C 32.269531 -20.921875 32.628906 -19.789062 32.734375 -18.5625 C 32.847656 -17.332031 32.640625 -16.03125 32.109375 -14.65625 L 26.625 -0.546875 C 26.15625 0.640625 25.617188 1.632812 25.015625 2.4375 C 24.410156 3.238281 23.769531 3.882812 23.09375 4.375 C 22.414062 4.875 21.722656 5.253906 21.015625 5.515625 C 20.304688 5.773438 19.617188 5.941406 18.953125 6.015625 C 17.378906 6.210938 15.75 6.03125 14.0625 5.46875 L 6.515625 2.53125 C 5.648438 2.195312 5.035156 1.789062 4.671875 1.3125 C 4.316406 0.832031 4.128906 0.304688 4.109375 -0.265625 C 4.085938 -0.847656 4.175781 -1.457031 4.375 -2.09375 C 4.582031 -2.726562 4.816406 -3.378906 5.078125 -4.046875 L 13.40625 -25.484375 C 13.664062 -26.128906 13.9375 -26.753906 14.21875 -27.359375 C 14.5 -27.972656 14.835938 -28.476562 15.234375 -28.875 C 15.640625 -29.28125 16.132812 -29.539062 16.71875 -29.65625 C 17.3125 -29.769531 18.039062 -29.660156 18.90625 -29.328125 Z M 20.28125 -22.65625 L 12.078125 -1.546875 L 15.046875 -0.390625 C 15.703125 -0.171875 16.335938 -0.0976562 16.953125 -0.171875 C 17.210938 -0.191406 17.484375 -0.25 17.765625 -0.34375 C 18.046875 -0.445312 18.316406 -0.585938 18.578125 -0.765625 C 18.847656 -0.953125 19.097656 -1.203125 19.328125 -1.515625 C 19.554688 -1.828125 19.757812 -2.210938 19.9375 -2.671875 L 25.15625 -16.09375 C 25.351562 -16.59375 25.476562 -17.050781 25.53125 -17.46875 C 25.59375 -17.894531 25.59375 -18.285156 25.53125 -18.640625 C 25.46875 -18.992188 25.367188 -19.3125 25.234375 -19.59375 C 25.109375 -19.875 24.960938 -20.117188 24.796875 -20.328125 C 24.390625 -20.804688 23.875 -21.195312 23.25 -21.5 Z M 20.28125 -22.65625 "/></g></g></g><g clip-path="url(#4840785595)"><g clip-path="url(#82430bd3d6)"><g clip-path="url(#fb8ada7be5)"><path fill="#ffffff" d="M 152.050781 121.382812 L 165.730469 111.164062 L 169.9375 116.796875 L 156.253906 127.011719 Z M 152.050781 121.382812 " fill-opacity="1" fill-rule="nonzero"/></g></g></g><g clip-path="url(#ae74c3330d)"><g clip-path="url(#d5b5876842)"><g clip-path="url(#2596bf27b7)"><path fill="#ffffff" d="M 140.667969 117.351562 L 147.160156 102.214844 L 153.621094 104.988281 L 147.125 120.125 Z M 140.667969 117.351562 " fill-opacity="1" fill-rule="nonzero"/></g></g></g></svg>