<svg width="49" height="49" viewBox="0 0 49 49" fill="none" xmlns="http://www.w3.org/2000/svg">
<path d="M24.5 48.25C21.2146 48.25 18.1271 47.6266 15.2375 46.3797C12.3479 45.1328 9.83437 43.4406 7.69688 41.3031C5.55937 39.1656 3.86719 36.6521 2.62031 33.7625C1.37344 30.8729 0.75 27.7854 0.75 24.5C0.75 21.2146 1.37344 18.1271 2.62031 15.2375C3.86719 12.3479 5.55937 9.83437 7.69688 7.69688C9.83437 5.55937 12.3479 3.86719 15.2375 2.62031C18.1271 1.37344 21.2146 0.75 24.5 0.75C27.7854 0.75 30.8729 1.37344 33.7625 2.62031C36.6521 3.86719 39.1656 5.55937 41.3031 7.69688C43.4406 9.83437 45.1328 12.3479 46.3797 15.2375C47.6266 18.1271 48.25 21.2146 48.25 24.5C48.25 27.7854 47.6266 30.8729 46.3797 33.7625C45.1328 36.6521 43.4406 39.1656 41.3031 41.3031C39.1656 43.4406 36.6521 45.1328 33.7625 46.3797C30.8729 47.6266 27.7854 48.25 24.5 48.25ZM24.5 43.5C26.6375 43.5 28.6958 43.1536 30.675 42.4609C32.6542 41.7682 34.475 40.7687 36.1375 39.4625L9.5375 12.8625C8.23125 14.525 7.23177 16.3458 6.53906 18.325C5.84635 20.3042 5.5 22.3625 5.5 24.5C5.5 29.8042 7.34062 34.2969 11.0219 37.9781C14.7031 41.6594 19.1958 43.5 24.5 43.5ZM39.4625 36.1375C40.7687 34.475 41.7682 32.6542 42.4609 30.675C43.1536 28.6958 43.5 26.6375 43.5 24.5C43.5 19.1958 41.6594 14.7031 37.9781 11.0219C34.2969 7.34062 29.8042 5.5 24.5 5.5C22.3625 5.5 20.3042 5.84635 18.325 6.53906C16.3458 7.23177 14.525 8.23125 12.8625 9.5375L39.4625 36.1375Z" fill="#435B3A"/>
</svg>
