<?xml version="1.0" encoding="UTF-8" standalone="no"?>
<svg width="637" height="1080" viewBox="0 0 637 1080" fill="none" xmlns="http://www.w3.org/2000/svg">
<g filter="url(#filter0_d_58_214)">
<path d="M621.5 -1.74255C618 277.309 275.359 114.851 345.5 405.356C404.5 649.717 377 804.292 463.5 869.081C550 933.87 598 933.36 557.5 1004.27C519.84 1070.21 562.501 1096.61 545.001 1088.96L7.50037 1088.96V-1.74255H621.5Z" fill="#A8D5B1"/>
<path d="M345.5 -1.74194C342 277.309 -7.9624 113.184 188 376.788C303.669 532.383 101.5 882.856 188 947.645C274.5 1012.43 404.5 978.253 404.5 1073.65C404.5 1149.97 422 1096.61 404.5 1088.96L7.50037 1088.96V-1.74255L345.5 -1.74194Z" fill="#464850"/>
</g>
<g filter="url(#filter1_d_58_214)">
<path d="M407.501 -2.00722C404.001 277.044 113.319 76.498 250.001 376.524C380.5 662.981 255.5 849.185 342 913.974C428.5 978.763 466.501 977.989 466.501 1073.39C466.501 1149.7 484.001 1096.34 466.501 1088.69L10.5005 1088.69V-2.00722H407.501Z" fill="#89AC84"/>
</g>
<g filter="url(#filter2_d_58_214)">
<path d="M338 0.000730791C334.5 279.052 -15.4627 114.927 180.5 378.531C296.168 534.126 94 884.598 180.5 949.387C267 1014.18 397 979.996 397 1075.39C397 1151.71 414.5 1098.35 397 1090.7L3.05176e-05 1090.7V0.000108052L338 0.000730791Z" fill="#464850"/>
</g>
<defs>
<filter id="filter0_d_58_214" x="-7.49951" y="-12.7427" width="644" height="1145.96" filterUnits="userSpaceOnUse" color-interpolation-filters="sRGB">
<feFlood flood-opacity="0" result="BackgroundImageFix"/>
<feColorMatrix in="SourceAlpha" type="matrix" values="0 0 0 0 0 0 0 0 0 0 0 0 0 0 0 0 0 0 127 0" result="hardAlpha"/>
<feOffset dy="4"/>
<feGaussianBlur stdDeviation="7.5"/>
<feComposite in2="hardAlpha" operator="out"/>
<feColorMatrix type="matrix" values="0 0 0 0 0 0 0 0 0 0 0 0 0 0 0 0 0 0 0.5 0"/>
<feBlend mode="normal" in2="BackgroundImageFix" result="effect1_dropShadow_58_214"/>
<feBlend mode="normal" in="SourceGraphic" in2="effect1_dropShadow_58_214" result="shape"/>
</filter>
<filter id="filter1_d_58_214" x="-8.49951" y="-13.0073" width="493.778" height="1145.96" filterUnits="userSpaceOnUse" color-interpolation-filters="sRGB">
<feFlood flood-opacity="0" result="BackgroundImageFix"/>
<feColorMatrix in="SourceAlpha" type="matrix" values="0 0 0 0 0 0 0 0 0 0 0 0 0 0 0 0 0 0 127 0" result="hardAlpha"/>
<feOffset dx="-4" dy="4"/>
<feGaussianBlur stdDeviation="7.5"/>
<feComposite in2="hardAlpha" operator="out"/>
<feColorMatrix type="matrix" values="0 0 0 0 0 0 0 0 0 0 0 0 0 0 0 0 0 0 0.5 0"/>
<feBlend mode="normal" in2="BackgroundImageFix" result="effect1_dropShadow_58_214"/>
<feBlend mode="normal" in="SourceGraphic" in2="effect1_dropShadow_58_214" result="shape"/>
</filter>
<filter id="filter2_d_58_214" x="-19" y="-11" width="434.778" height="1145.96" filterUnits="userSpaceOnUse" color-interpolation-filters="sRGB">
<feFlood flood-opacity="0" result="BackgroundImageFix"/>
<feColorMatrix in="SourceAlpha" type="matrix" values="0 0 0 0 0 0 0 0 0 0 0 0 0 0 0 0 0 0 127 0" result="hardAlpha"/>
<feOffset dx="-4" dy="4"/>
<feGaussianBlur stdDeviation="7.5"/>
<feComposite in2="hardAlpha" operator="out"/>
<feColorMatrix type="matrix" values="0 0 0 0 0 0 0 0 0 0 0 0 0 0 0 0 0 0 0.5 0"/>
<feBlend mode="normal" in2="BackgroundImageFix" result="effect1_dropShadow_58_214"/>
<feBlend mode="normal" in="SourceGraphic" in2="effect1_dropShadow_58_214" result="shape"/>
</filter>
</defs>
</svg>
